<?xml version="1.0" encoding="utf-8"?>
<!-- Generator: Adobe Illustrator 26.0.1, SVG Export Plug-In . SVG Version: 6.00 Build 0)  -->
<svg version="1.1" id="Layer_1" xmlns="http://www.w3.org/2000/svg" xmlns:xlink="http://www.w3.org/1999/xlink" x="0px" y="0px"
	 viewBox="0 0 375 242" style="enable-background:new 0 0 375 242;" xml:space="preserve">
<style type="text/css">
	.st0{clip-path:url(#SVGID_00000144320501558163909970000013944491111219082119_);}
	.st1{fill:#202020;}
	.st2{fill:#D9A53E;}
	.st3{clip-path:url(#SVGID_00000008149430934708694400000014883046792811141803_);}
	.st4{clip-path:url(#SVGID_00000017484834457913105170000010401766004963962045_);}
	.st5{clip-path:url(#SVGID_00000023993180861381371510000004470090833419642017_);}
	.st6{clip-path:url(#SVGID_00000168817509146086980420000005302413442496367020_);}
	.st7{clip-path:url(#SVGID_00000080172570336323527910000017196719695247093141_);fill:#202020;}
	.st8{clip-path:url(#SVGID_00000043449959003530144770000008238751325817781890_);fill:#202020;}
	.st9{clip-path:url(#SVGID_00000057135317796674124800000013912340267171342485_);}
</style>
<g>
	<defs>
		<rect id="SVGID_1_" y="-59.08" width="375" height="375"/>
	</defs>
	<clipPath id="SVGID_00000139279866428961784610000014416260748239099292_">
		<use xlink:href="#SVGID_1_"  style="overflow:visible;"/>
	</clipPath>
	<g style="clip-path:url(#SVGID_00000139279866428961784610000014416260748239099292_);">
		<path class="st1" d="M97.97,38.34c3.4-9.95,9.08-16.8,17.04-20.55c7.96-3.75,22.07-5.62,42.34-5.62c4.22,0,14.87,0.18,31.97,0.53
			c12.41,0.35,23.36,3.05,32.85,8.08c9.49,5.04,16.89,12.15,22.22,21.34c5.33,9.2,7.99,19.88,7.99,32.06
			c0,18.39-5.83,33.23-17.48,44.53c-11.65,11.3-26.85,16.95-45.59,16.95h-59.55l0.18-1.76h2.11c2.93,0,5.45-0.97,7.55-2.9
			c2.11-1.93,3.34-4.3,3.69-7.12V17.96c-14.64,0.35-25.01,2.64-31.09,6.85c-3.16,2.23-5.56,4.36-7.2,6.41
			c-1.64,2.05-3.34,4.66-5.09,7.82L97.97,38.34z M154.71,17.96v112.43h34.61c14.87,0,26.91-5.15,36.1-15.46
			c9.19-10.3,13.79-23.89,13.79-40.76c0-11.12-2.08-20.93-6.24-29.43c-4.16-8.49-10.01-15.08-17.57-19.76
			c-7.55-4.68-16.25-7.03-26.09-7.03H154.71z"/>
	</g>
	<g style="clip-path:url(#SVGID_00000139279866428961784610000014416260748239099292_);">
		<path class="st2" d="M184.73,137.06c3.31,27.46,19.68,46.64,41.51,46.64c15.22,0,26.63-8.27,26.63-24.97
			c0-14.55-14.72-24.31-39.53-43.17c-23.65-17.53-33.57-25.14-33.57-41.51c0-17.2,13.89-26.63,33.08-26.63
			c19.52,0,33.91,10.09,45.32,30.6l-13.23,4.96c-3.14-16.21-11.74-32.91-32.91-32.91c-14.22,0-22.66,7.28-22.66,18.19
			c0,12.9,9.59,18.85,30.1,33.91c28.12,20.67,42.84,30.93,42.84,51.27c0,22.16-16.87,32.91-37.05,32.91
			c-23.32,0-42.5-10.92-53.75-42.84L184.73,137.06z"/>
	</g>
</g>
<g>
	<defs>
		<rect id="SVGID_00000112590479117824523700000011956612895140497560_" y="-59.08" width="375" height="382.5"/>
	</defs>
	<clipPath id="SVGID_00000093888003424470235240000014609975355147618459_">
		<use xlink:href="#SVGID_00000112590479117824523700000011956612895140497560_"  style="overflow:visible;"/>
	</clipPath>
	<g style="clip-path:url(#SVGID_00000093888003424470235240000014609975355147618459_);">
		<defs>
			<rect id="SVGID_00000129188819756460667500000008151525420817342604_" y="-59.08" width="375" height="375"/>
		</defs>
		<clipPath id="SVGID_00000160885184571704713900000008610729342002609824_">
			<use xlink:href="#SVGID_00000129188819756460667500000008151525420817342604_"  style="overflow:visible;"/>
		</clipPath>
		<g style="clip-path:url(#SVGID_00000160885184571704713900000008610729342002609824_);">
			<defs>
				<rect id="SVGID_00000119827799849058944060000006551601386827753874_" y="-59.08" width="375" height="375"/>
			</defs>
			<clipPath id="SVGID_00000121974682453621477460000016537279069652494268_">
				<use xlink:href="#SVGID_00000119827799849058944060000006551601386827753874_"  style="overflow:visible;"/>
			</clipPath>
			<g style="clip-path:url(#SVGID_00000121974682453621477460000016537279069652494268_);">
				<defs>
					
						<rect id="SVGID_00000008144728251090268120000009079082543200716422_" x="189.66" y="48.18" transform="matrix(0.9468 -0.3219 0.3219 0.9468 -7.5707 65.8201)" width="11.14" height="15.24"/>
				</defs>
				<clipPath id="SVGID_00000140009008063704872930000010514724344042400947_">
					<use xlink:href="#SVGID_00000008144728251090268120000009079082543200716422_"  style="overflow:visible;"/>
				</clipPath>
				<g style="clip-path:url(#SVGID_00000140009008063704872930000010514724344042400947_);">
					<defs>
						
							<rect id="SVGID_00000111890919937332432710000009987301729516287645_" x="189.66" y="48.18" transform="matrix(0.9468 -0.3219 0.3219 0.9468 -7.5699 65.8197)" width="11.14" height="15.23"/>
					</defs>
					<clipPath id="SVGID_00000168824581130634291790000007479115634991107994_">
						<use xlink:href="#SVGID_00000111890919937332432710000009987301729516287645_"  style="overflow:visible;"/>
					</clipPath>
					
						<rect x="189.66" y="48.18" transform="matrix(0.9468 -0.3219 0.3219 0.9468 -7.5707 65.8202)" style="clip-path:url(#SVGID_00000168824581130634291790000007479115634991107994_);fill:#202020;" width="11.14" height="15.24"/>
				</g>
			</g>
		</g>
	</g>
</g>
<g>
	<defs>
		<rect id="SVGID_00000163787035365761180830000004057146952290109356_" x="115.54" y="139.91" width="42.75" height="41.25"/>
	</defs>
	<clipPath id="SVGID_00000165945208199588108440000007064492615138962365_">
		<use xlink:href="#SVGID_00000163787035365761180830000004057146952290109356_"  style="overflow:visible;"/>
	</clipPath>
	<path style="clip-path:url(#SVGID_00000165945208199588108440000007064492615138962365_);fill:#202020;" d="M154.45,148.78
		l3.71-0.38l-3.71-0.38c-2.33-0.24-4.17-2.08-4.41-4.41l-0.38-3.71l-0.38,3.71c-0.24,2.33-2.08,4.17-4.41,4.41l-3.71,0.38l3.71,0.38
		c2.33,0.24,4.17,2.08,4.41,4.41l0.38,3.71l0.38-3.71C150.28,150.86,152.12,149.02,154.45,148.78z M135.45,172.6l-0.85,8.32
		l-0.85-8.32c-0.53-5.22-4.66-9.34-9.87-9.87l-8.32-0.85l8.32-0.85c5.22-0.53,9.34-4.66,9.87-9.87l0.85-8.32l0.85,8.32
		c0.53,5.22,4.66,9.34,9.87,9.87l8.32,0.85l-8.32,0.85C140.11,163.26,135.98,167.38,135.45,172.6z"/>
</g>
<g>
	<defs>
		<rect id="SVGID_00000023974170153481950030000001901799830712873349_" y="-59.08" width="375" height="375"/>
	</defs>
	<clipPath id="SVGID_00000168828032707856823580000010372734587148644241_">
		<use xlink:href="#SVGID_00000023974170153481950030000001901799830712873349_"  style="overflow:visible;"/>
	</clipPath>
	<g style="clip-path:url(#SVGID_00000168828032707856823580000010372734587148644241_);">
		<path class="st2" d="M164.79,205.37c0.1,0,0.16,0.11,0.16,0.34l0.4,3.31c0.04,0.21,0.06,0.34,0.06,0.4c0,0.06-0.08,0.09-0.24,0.09
			c-0.16,0-0.26-0.02-0.3-0.06c-0.04-0.04-0.08-0.11-0.12-0.21c-0.04-0.1-0.09-0.21-0.15-0.33c-0.06-0.12-0.12-0.25-0.18-0.37
			c-0.22-0.48-0.56-0.95-1.02-1.41c-1.14-1.1-2.42-1.64-3.85-1.64c-0.86,0-1.67,0.28-2.44,0.84s-1.15,1.22-1.15,1.98
			c0,0.76,0.14,1.42,0.43,1.98c0.28,0.56,0.66,1.08,1.13,1.55c0.47,0.48,1,0.93,1.6,1.37s1.21,0.87,1.83,1.32
			c1.65,1.15,2.81,2.13,3.51,2.95c1.09,1.26,1.68,2.68,1.77,4.25c0,1.76-0.68,3.16-2.03,4.21s-2.92,1.58-4.71,1.58
			c-1.15,0-2.06-0.12-2.74-0.35c-0.68-0.23-1.15-0.4-1.4-0.5c-0.26-0.1-0.45-0.16-0.57-0.16c-0.12,0-0.19,0.01-0.23,0.02l-0.76,0.16
			c-0.13,0-0.22-0.11-0.25-0.33c-0.3-2.57-0.45-3.93-0.45-4.09s0.01-0.27,0.04-0.33s0.1-0.08,0.21-0.08c0.29,0,0.55,0.41,0.79,1.24
			c1.09,2.33,2.89,3.49,5.42,3.49c1.16,0,2.15-0.35,2.97-1.06c0.82-0.7,1.23-1.62,1.23-2.75c0-1.8-1.08-3.48-3.23-5.03
			c-0.61-0.43-1.49-1.04-2.64-1.82c-1.15-0.78-2.06-1.55-2.75-2.33c-1.07-1.2-1.6-2.54-1.6-4.01c0-1.47,0.59-2.68,1.76-3.62
			c1.17-0.94,2.52-1.41,4.04-1.41c0.79,0,1.65,0.13,2.6,0.4c0.95,0.27,1.61,0.45,1.98,0.54L164.79,205.37z"/>
		<path class="st2" d="M172.91,215.05c0,0.25,0.04,0.37,0.11,0.37c0.07,0,0.12-0.02,0.15-0.05c0.03-0.04,0.25-0.28,0.65-0.72
			c1.17-1.3,2.35-1.96,3.55-1.96c1.57,0,2.73,0.35,3.46,1.06c0.9,0.89,1.35,2.38,1.35,4.49v6.47c0,1.01,0.56,1.6,1.68,1.77
			c0.49,0.06,0.73,0.17,0.73,0.33s-0.05,0.24-0.16,0.26h-6.92c-0.1-0.02-0.16-0.09-0.16-0.22c0-0.19,0.24-0.31,0.73-0.37
			c1.12-0.17,1.68-0.75,1.68-1.77v-6.32c0-1.52-0.11-2.51-0.33-2.96c-0.41-0.91-1.28-1.37-2.59-1.37c-0.81,0-1.67,0.34-2.58,1.03
			c-0.91,0.69-1.37,1.45-1.37,2.27v7.34c0,1.01,0.56,1.6,1.68,1.77c0.49,0.06,0.73,0.17,0.73,0.33s-0.05,0.24-0.15,0.26h-6.92
			c-0.1-0.02-0.16-0.09-0.16-0.22c0-0.19,0.24-0.31,0.73-0.37c1.12-0.17,1.68-0.75,1.68-1.77v-19.35c0-0.43-0.24-0.73-0.71-0.9
			c-0.21-0.07-0.43-0.13-0.67-0.18c-0.24-0.05-0.43-0.09-0.57-0.13c-0.14-0.04-0.23-0.08-0.26-0.12c-0.04-0.04-0.05-0.11-0.05-0.23
			c0-0.12,0.08-0.22,0.23-0.3l3.96-1.86c0.12-0.06,0.2-0.09,0.23-0.09c0.18,0,0.26,0.12,0.26,0.37V215.05z"/>
		<path class="st2" d="M186.14,227.07c-0.1-0.02-0.16-0.09-0.16-0.22c0-0.19,0.24-0.31,0.73-0.37c1.12-0.17,1.68-0.75,1.68-1.77
			v-8.21c0-0.43-0.24-0.73-0.71-0.9c-0.21-0.07-0.43-0.13-0.67-0.18c-0.24-0.05-0.43-0.09-0.57-0.13c-0.14-0.04-0.23-0.08-0.26-0.12
			s-0.05-0.11-0.05-0.23s0.08-0.22,0.23-0.3l3.96-1.86c0.12-0.06,0.2-0.09,0.23-0.09c0.18,0,0.26,0.12,0.26,0.37v11.65
			c0,1.01,0.56,1.6,1.68,1.77c0.49,0.06,0.73,0.17,0.73,0.33s-0.05,0.24-0.16,0.26H186.14z M189.38,208.32
			c-0.43,0-0.81-0.13-1.13-0.4c-0.33-0.27-0.49-0.64-0.49-1.12c0-0.48,0.15-0.86,0.46-1.14s0.68-0.42,1.11-0.42s0.79,0.17,1.09,0.5
			c0.29,0.33,0.44,0.69,0.44,1.07s-0.14,0.73-0.42,1.05C190.16,208.16,189.81,208.32,189.38,208.32z"/>
		<path class="st2" d="M200.81,226.48c0.49,0.06,0.73,0.19,0.73,0.37c0,0.12-0.05,0.2-0.16,0.22h-6.92
			c-0.1-0.02-0.16-0.09-0.16-0.22c0-0.19,0.24-0.31,0.73-0.37c1.12-0.17,1.68-0.75,1.68-1.77v-19.35c0-0.43-0.24-0.73-0.71-0.9
			c-0.21-0.07-0.43-0.13-0.67-0.18c-0.24-0.05-0.43-0.09-0.57-0.13c-0.14-0.04-0.23-0.08-0.26-0.12s-0.05-0.11-0.05-0.23
			c0-0.12,0.08-0.22,0.23-0.3l3.96-1.86c0.12-0.06,0.2-0.09,0.23-0.09c0.18,0,0.26,0.12,0.26,0.37v22.8
			C199.13,225.72,199.69,226.31,200.81,226.48z"/>
		<path class="st2" d="M208.89,226.48c0.49,0.06,0.73,0.19,0.73,0.37c0,0.12-0.05,0.2-0.16,0.22h-6.92
			c-0.1-0.02-0.16-0.09-0.16-0.22c0-0.19,0.24-0.31,0.73-0.37c1.12-0.17,1.68-0.75,1.68-1.77v-19.35c0-0.43-0.24-0.73-0.71-0.9
			c-0.21-0.07-0.43-0.13-0.67-0.18c-0.24-0.05-0.43-0.09-0.57-0.13c-0.14-0.04-0.23-0.08-0.26-0.12s-0.05-0.11-0.05-0.23
			c0-0.12,0.08-0.22,0.23-0.3l3.96-1.86c0.12-0.06,0.2-0.09,0.23-0.09c0.18,0,0.26,0.12,0.26,0.37v22.8
			C207.22,225.72,207.78,226.31,208.89,226.48z"/>
		<path class="st2" d="M221.22,225.15c0.25,0.16,0.54,0.24,0.88,0.24c0.33,0,0.61-0.09,0.83-0.26c0.22-0.17,0.38-0.26,0.46-0.26
			c0.08,0,0.12,0.11,0.12,0.33s-0.1,0.41-0.31,0.57c-1.55,1.14-2.6,1.71-3.15,1.71c-0.66,0-1.2-0.69-1.61-2.06
			c-0.03-0.1-0.06-0.15-0.08-0.14c-1.28,0.96-2.09,1.54-2.42,1.74c-0.85,0.49-1.7,0.56-2.55,0.23c-0.85-0.33-1.47-0.88-1.86-1.65
			c-0.19-0.39-0.28-0.81-0.28-1.26c0-0.88,0.33-1.58,0.98-2.09c0.65-0.52,1.89-1.01,3.72-1.49c0.62-0.17,1.17-0.38,1.66-0.64
			c0.49-0.26,0.74-0.42,0.77-0.5c0.03-0.07,0.04-0.14,0.04-0.2v-2.98c0-1.17-0.46-1.99-1.37-2.47c-0.3-0.16-0.66-0.23-1.08-0.23
			s-0.84,0.17-1.27,0.5c-0.43,0.33-0.64,0.8-0.64,1.41l0.08,0.6c-0.06,0.12-0.43,0.33-1.12,0.62c-0.68,0.29-1.08,0.45-1.18,0.47
			c-0.17,0-0.25-0.2-0.25-0.6s0.12-0.84,0.36-1.33c0.24-0.49,0.57-0.93,1.01-1.33c1.01-0.94,2.17-1.41,3.48-1.41
			s2.36,0.36,3.18,1.08s1.23,1.58,1.23,2.57v8.18C220.84,224.78,220.97,224.99,221.22,225.15z M213.69,224.06
			c0,0.5,0.19,0.93,0.57,1.3s0.82,0.55,1.31,0.55s1.09-0.21,1.79-0.63c0.7-0.42,1.05-0.85,1.05-1.3v-3.15
			c0-0.11-0.03-0.17-0.08-0.17s-0.09,0-0.11,0.02l-3.6,1.68c-0.37,0.27-0.62,0.5-0.75,0.68
			C213.75,223.22,213.69,223.56,213.69,224.06z"/>
		<path class="st2" d="M233.18,227.07c-0.08,0-0.12-0.04-0.12-0.12v-0.37c0-0.08,0.04-0.12,0.12-0.12h0.37
			c0.89,0,1.67-0.19,2.33-0.56c0.27-0.16,0.49-0.4,0.67-0.72c0.18-0.33,0.26-0.69,0.26-1.09v-16.42c0-0.64-0.41-1.13-1.24-1.47
			c-0.58-0.25-1.2-0.37-1.85-0.37h-0.34c-0.08,0-0.12-0.04-0.12-0.12v-0.37c0-0.08,0.04-0.12,0.12-0.12h10.51
			c0.08,0,0.12,0.04,0.12,0.12v0.37c0,0.08-0.04,0.12-0.12,0.12h-0.67c-1.07,0-2.01,0.15-2.83,0.45c-0.24,0.08-0.39,0.22-0.46,0.41
			c-0.07,0.19-0.1,0.52-0.1,0.99v17.21c0.02,0.18,0.11,0.34,0.28,0.5c0.17,0.16,0.35,0.23,0.56,0.23h6.13
			c0.92,0,1.83-0.54,2.72-1.63c0.24-0.29,0.53-0.68,0.88-1.16c0.35-0.48,0.57-0.75,0.65-0.82c0.33-0.25,0.5-0.24,0.5,0.02
			c0,0.06-0.01,0.12-0.05,0.19l-2.34,4.59c-0.09,0.19-0.2,0.28-0.33,0.28H233.18z"/>
		<path class="st2" d="M252.75,227.07c-0.1-0.02-0.16-0.09-0.16-0.22c0-0.19,0.24-0.31,0.73-0.37c1.12-0.17,1.68-0.75,1.68-1.77
			v-8.21c0-0.43-0.24-0.73-0.71-0.9c-0.21-0.07-0.43-0.13-0.67-0.18c-0.24-0.05-0.43-0.09-0.57-0.13c-0.14-0.04-0.23-0.08-0.26-0.12
			s-0.05-0.11-0.05-0.23s0.08-0.22,0.23-0.3l3.96-1.86c0.12-0.06,0.2-0.09,0.23-0.09c0.18,0,0.26,0.12,0.26,0.37v11.65
			c0,1.01,0.56,1.6,1.68,1.77c0.49,0.06,0.73,0.17,0.73,0.33s-0.05,0.24-0.16,0.26H252.75z M255.99,208.32
			c-0.43,0-0.81-0.13-1.13-0.4c-0.33-0.27-0.49-0.64-0.49-1.12c0-0.48,0.16-0.86,0.47-1.14s0.68-0.42,1.11-0.42s0.79,0.17,1.09,0.5
			c0.29,0.33,0.44,0.69,0.44,1.07s-0.14,0.73-0.42,1.05C256.77,208.16,256.42,208.32,255.99,208.32z"/>
		<path class="st2" d="M282.15,222.18l-0.03-3.27c0-1.33-0.11-2.27-0.34-2.81s-0.52-0.94-0.87-1.22c-0.35-0.27-0.83-0.41-1.42-0.41
			s-1.85,0.47-3.78,1.4c-0.26,0.16-0.39,0.3-0.4,0.43v8.35c0,1.04,0.56,1.64,1.68,1.8c0.49,0.07,0.73,0.19,0.73,0.35
			s-0.05,0.25-0.16,0.27h-6.92c-0.1-0.02-0.16-0.09-0.16-0.22c0-0.2,0.24-0.33,0.73-0.4c1.12-0.16,1.68-0.75,1.68-1.8v-7.73
			c0-1.62-1-2.44-3.01-2.44c-0.73,0-1.75,0.43-3.06,1.3c-0.33,0.22-0.57,0.42-0.73,0.61v8.26c0,1.04,0.56,1.64,1.68,1.8
			c0.49,0.07,0.73,0.19,0.73,0.35s-0.05,0.25-0.16,0.27h-6.92c-0.1-0.02-0.16-0.09-0.16-0.22c0-0.2,0.24-0.33,0.73-0.4
			c1.12-0.16,1.68-0.74,1.68-1.77v-8.94c0-0.43-0.24-0.73-0.71-0.9c-0.21-0.07-0.43-0.13-0.67-0.18c-0.24-0.05-0.43-0.09-0.57-0.13
			c-0.14-0.04-0.23-0.08-0.26-0.12c-0.04-0.04-0.05-0.11-0.05-0.23s0.08-0.22,0.23-0.3l3.96-1.86c0.12-0.06,0.2-0.09,0.23-0.09
			c0.18,0,0.26,0.12,0.26,0.37v2.58c0.01,0.06,0.05,0.09,0.12,0.09s0.24-0.07,0.51-0.22c0.27-0.14,0.63-0.35,1.08-0.61
			c0.44-0.26,1.03-0.57,1.76-0.92c0.73-0.35,1.5-0.53,2.32-0.53c1.31,0,2.26,0.56,2.83,1.69c0.22,0.46,0.41,0.65,0.59,0.58
			s0.45-0.19,0.82-0.38c0.88-0.43,1.77-0.86,2.67-1.27c0.9-0.41,1.65-0.62,2.23-0.62c2.39,0,3.58,2.18,3.58,6.53l-0.14,4.53v0.9
			c0,0.81,0.4,1.33,1.21,1.58c0.34,0.11,0.67,0.19,0.99,0.24s0.52,0.09,0.62,0.13c0.1,0.04,0.15,0.12,0.15,0.25
			c0,0.12-0.05,0.2-0.16,0.22h-7.48c-0.1-0.02-0.16-0.09-0.16-0.22c0-0.2,0.24-0.33,0.73-0.4c1.11-0.16,1.66-0.8,1.66-1.92
			C282.1,224,282.15,223.22,282.15,222.18z"/>
		<path class="st2" d="M288.57,227.07c-0.1-0.02-0.16-0.09-0.16-0.22c0-0.19,0.24-0.31,0.73-0.37c1.12-0.17,1.68-0.75,1.68-1.77
			v-8.21c0-0.43-0.24-0.73-0.71-0.9c-0.21-0.07-0.43-0.13-0.67-0.18c-0.24-0.05-0.43-0.09-0.57-0.13c-0.14-0.04-0.23-0.08-0.26-0.12
			s-0.05-0.11-0.05-0.23s0.08-0.22,0.23-0.3l3.96-1.86c0.12-0.06,0.2-0.09,0.23-0.09c0.18,0,0.26,0.12,0.26,0.37v11.65
			c0,1.01,0.56,1.6,1.68,1.77c0.49,0.06,0.73,0.17,0.73,0.33s-0.05,0.24-0.16,0.26H288.57z M291.81,208.32
			c-0.43,0-0.81-0.13-1.13-0.4c-0.33-0.27-0.49-0.64-0.49-1.12c0-0.48,0.16-0.86,0.47-1.14s0.68-0.42,1.11-0.42s0.79,0.17,1.09,0.5
			c0.29,0.33,0.44,0.69,0.44,1.07s-0.14,0.73-0.42,1.05C292.59,208.16,292.23,208.32,291.81,208.32z"/>
		<path class="st2" d="M301.28,215.13c-0.06,0-0.09,0.05-0.09,0.14v8.57c0,0.62,0.14,1.11,0.41,1.46c0.27,0.35,0.62,0.53,1.05,0.53
			c0.42,0,0.79-0.07,1.11-0.21c0.32-0.14,0.59-0.29,0.82-0.46c0.23-0.17,0.44-0.32,0.63-0.46c0.19-0.14,0.35-0.21,0.5-0.21
			s0.22,0.04,0.22,0.11c0,0.25-0.03,0.41-0.08,0.48c-1.24,1.6-2.44,2.41-3.59,2.41s-2.02-0.36-2.61-1.09
			c-0.58-0.73-0.88-1.6-0.88-2.62v-8.64h-1.16c-0.29,0-0.44-0.09-0.46-0.28c-0.02-0.19,0.01-0.3,0.08-0.36
			c0.55-0.35,1.3-0.98,2.27-1.89c0.1-0.11,0.24-0.28,0.42-0.51c0.18-0.23,0.43-0.54,0.77-0.93c0.34-0.39,0.59-0.59,0.77-0.59
			s0.26,0.07,0.26,0.22c0,0.02-0.18,0.7-0.53,2.03c0,0.19,0.08,0.28,0.25,0.29h3.96c0.46,0,0.68,0.64,0.68,1.92
			c0,0.06-0.04,0.09-0.12,0.09H301.28z"/>
		<path class="st2" d="M310.05,218.89c-0.18,0-0.26,0.38-0.26,1.13c0,1.6,0.48,2.95,1.43,4.04c0.95,1.09,2.13,1.63,3.55,1.63
			s2.77-0.61,4.07-1.83c0.02-0.02,0.05-0.03,0.08-0.03h0.08c0.06,0,0.12,0.05,0.18,0.15c0.06,0.1,0.11,0.16,0.16,0.19
			c-1.2,1.46-2.61,2.47-4.24,3.03c-0.56,0.2-1.19,0.29-1.89,0.29c-0.7,0-1.42-0.19-2.14-0.58c-0.72-0.39-1.34-0.9-1.86-1.53
			c-1.1-1.31-1.65-2.95-1.65-4.91c0-1.96,0.6-3.75,1.79-5.36c1.2-1.61,2.84-2.42,4.93-2.42c1.5,0,2.73,0.67,3.68,2.01
			c0.95,1.34,1.43,2.52,1.43,3.53c0,0.44-0.11,0.67-0.33,0.67H310.05z M310.22,217.4c0,0.2,0.09,0.29,0.28,0.29h5.85
			c0.27,0,0.4-0.16,0.4-0.48c0-0.75-0.33-1.51-1-2.29s-1.4-1.17-2.2-1.17c-0.78,0-1.48,0.35-2.12,1.06c-0.64,0.7-1.04,1.5-1.22,2.41
			V217.4z"/>
		<path class="st2" d="M331.56,213.32c0.46,0.16,0.73,0.24,0.84,0.24c0.1,0,0.17,0,0.19-0.01c0.03,0,0.06-0.07,0.1-0.19v-8.01
			c0-0.43-0.24-0.73-0.71-0.9c-0.21-0.07-0.43-0.13-0.67-0.18c-0.24-0.05-0.43-0.09-0.57-0.13c-0.14-0.04-0.23-0.08-0.26-0.12
			s-0.05-0.11-0.05-0.23c0-0.12,0.08-0.22,0.23-0.3l3.96-1.86c0.12-0.06,0.2-0.09,0.23-0.09c0.18,0,0.26,0.12,0.26,0.37v22.1
			c0.05,0.46,0.18,0.78,0.39,0.98c0.21,0.2,0.54,0.29,1.01,0.29l0.9-0.06c0.06,0,0.09,0.06,0.09,0.18s-0.08,0.21-0.23,0.29
			l-4.13,1.71c-0.12,0.06-0.23,0.09-0.32,0.09s-0.13-0.13-0.13-0.39v-1.41c0-0.1-0.03-0.16-0.08-0.16c-0.07,0-0.5,0.23-1.29,0.7
			c-2.41,1.43-4.44,1.64-6.1,0.64c-1.32-0.81-2.22-2.08-2.68-3.83c-0.22-0.82-0.33-1.68-0.33-2.6c0-0.92,0.19-1.83,0.57-2.73
			c0.38-0.9,0.9-1.7,1.56-2.38c1.46-1.49,3.22-2.23,5.28-2.23C330.46,213.08,331.1,213.16,331.56,213.32z M324.56,219.98
			c0,1.57,0.43,2.94,1.3,4.11c0.87,1.17,2.08,1.76,3.63,1.76c0.68,0,1.39-0.17,2.11-0.5s1.09-0.59,1.09-0.77v-8.01
			c0-0.2-0.13-0.43-0.4-0.7c-0.83-1.14-1.93-1.71-3.3-1.71c-1.37,0-2.45,0.58-3.24,1.73C324.95,217.05,324.56,218.41,324.56,219.98z
			"/>
	</g>
	<g style="clip-path:url(#SVGID_00000168828032707856823580000010372734587148644241_);">
		<path class="st1" d="M53.21,205.26c0-0.08,0.04-0.12,0.12-0.12h0.34l4.98-0.11c0.6-0.02,1.25-0.03,1.96-0.03h1.94
			c1.8,0,3.15,0.07,4.06,0.2s1.79,0.29,2.67,0.47c0.87,0.18,1.81,0.59,2.79,1.23c0.99,0.64,1.84,1.42,2.57,2.33
			c1.53,1.94,2.3,4.04,2.3,6.3c0,2.25-0.59,4.28-1.77,6.07c-1.7,2.6-4.15,4.29-7.37,5.09c-1.02,0.25-2.07,0.37-3.15,0.37H53.33
			c-0.08,0-0.12-0.04-0.12-0.12v-0.43c0-0.08,0.04-0.12,0.12-0.12h0.34c1.88,0,2.82-0.6,2.82-1.8v-17.01c0-0.58-0.22-1.02-0.67-1.31
			c-0.45-0.29-0.95-0.44-1.51-0.44h-0.99c-0.08,0-0.12-0.04-0.12-0.12V205.26z M59.91,205.73c-0.26,0-0.39,0.14-0.39,0.42v18.98
			c0,0.77,0.72,1.16,2.16,1.19c0.42,0.01,0.87,0.02,1.33,0.02c3.3,0,5.89-0.93,7.78-2.78c1.89-1.85,2.83-4.32,2.83-7.4
			s-0.87-5.59-2.62-7.53c-1.74-1.94-4.04-2.91-6.88-2.91H59.91z"/>
		<path class="st1" d="M89.39,225.15c0.25,0.16,0.55,0.24,0.88,0.24s0.61-0.09,0.83-0.26c0.22-0.17,0.37-0.26,0.46-0.26
			s0.12,0.11,0.12,0.33s-0.1,0.41-0.31,0.57c-1.55,1.14-2.6,1.71-3.15,1.71c-0.66,0-1.2-0.69-1.61-2.06
			c-0.03-0.1-0.06-0.15-0.08-0.14c-1.28,0.96-2.09,1.54-2.42,1.74c-0.85,0.49-1.7,0.56-2.55,0.23s-1.47-0.88-1.85-1.65
			c-0.19-0.39-0.28-0.81-0.28-1.26c0-0.88,0.33-1.58,0.98-2.09c0.65-0.52,1.89-1.01,3.72-1.49c0.62-0.17,1.17-0.38,1.66-0.64
			c0.49-0.26,0.74-0.42,0.77-0.5s0.04-0.14,0.04-0.2v-2.98c0-1.17-0.46-1.99-1.37-2.47c-0.3-0.16-0.66-0.23-1.08-0.23
			s-0.84,0.17-1.27,0.5c-0.43,0.33-0.64,0.8-0.64,1.41l0.08,0.6c-0.06,0.12-0.43,0.33-1.12,0.62c-0.68,0.29-1.08,0.45-1.18,0.47
			c-0.17,0-0.25-0.2-0.25-0.6s0.12-0.84,0.36-1.33c0.24-0.49,0.57-0.93,1.01-1.33c1.01-0.94,2.17-1.41,3.48-1.41
			c1.3,0,2.36,0.36,3.18,1.08s1.23,1.58,1.23,2.57v8.18C89.01,224.78,89.13,224.99,89.39,225.15z M81.85,224.06
			c0,0.5,0.19,0.93,0.57,1.3c0.38,0.37,0.82,0.55,1.31,0.55c0.49,0,1.09-0.21,1.79-0.63c0.7-0.42,1.06-0.85,1.06-1.3v-3.15
			c0-0.11-0.03-0.17-0.08-0.17c-0.05,0-0.09,0-0.11,0.02l-3.6,1.68c-0.37,0.27-0.62,0.5-0.75,0.68S81.85,223.56,81.85,224.06z"/>
		<path class="st1" d="M104.54,222.18l-0.03-3.27c0-1.33-0.11-2.27-0.34-2.81s-0.52-0.94-0.87-1.22c-0.35-0.27-0.83-0.41-1.42-0.41
			c-0.6,0-1.85,0.47-3.78,1.4c-0.26,0.16-0.39,0.3-0.4,0.43v8.35c0,1.04,0.56,1.64,1.68,1.8c0.49,0.07,0.73,0.19,0.73,0.35
			s-0.05,0.25-0.16,0.27h-6.92c-0.1-0.02-0.16-0.09-0.16-0.22c0-0.2,0.24-0.33,0.73-0.4c1.12-0.16,1.68-0.75,1.68-1.8v-8.91
			c0-0.43-0.24-0.73-0.71-0.9c-0.21-0.07-0.43-0.13-0.67-0.18c-0.24-0.05-0.43-0.09-0.57-0.13c-0.14-0.04-0.23-0.08-0.26-0.12
			c-0.04-0.04-0.05-0.11-0.05-0.23s0.08-0.22,0.23-0.3l3.96-1.86c0.12-0.06,0.2-0.09,0.23-0.09c0.18,0,0.26,0.12,0.26,0.37v2.42
			c0.03,0.1,0.07,0.16,0.12,0.16c0.06,0,0.28-0.09,0.67-0.28c0.89-0.44,1.78-0.87,2.69-1.29c0.9-0.41,1.65-0.62,2.23-0.62
			c2.39,0,3.58,2.18,3.58,6.53l-0.14,4.53v0.9c0,0.81,0.4,1.33,1.21,1.58c0.34,0.11,0.67,0.19,0.99,0.24
			c0.32,0.05,0.52,0.09,0.62,0.13c0.1,0.04,0.15,0.12,0.15,0.25c0,0.12-0.05,0.2-0.16,0.22h-7.48c-0.1-0.02-0.16-0.09-0.16-0.22
			c0-0.2,0.24-0.33,0.73-0.4c1.11-0.16,1.66-0.8,1.66-1.92C104.5,224,104.54,223.22,104.54,222.18z"/>
		<path class="st1" d="M140.35,225.58c0.08,0,0.12,0.1,0.12,0.29c0,0.19-0.03,0.3-0.09,0.32c-1.41,0.91-2.62,1.37-3.62,1.37
			s-1.88-0.47-2.6-1.41c-0.35-0.43-0.69-0.92-1.02-1.44c-0.33-0.53-0.61-0.93-0.84-1.21c-2.91,2.67-5.49,4-7.74,4
			c-1.5,0-2.8-0.62-3.89-1.85c-1.09-1.24-1.64-2.63-1.64-4.18c0-2.17,1.18-3.93,3.55-5.26c0.71-0.4,1.48-0.77,2.31-1.1
			c-1.18-1.15-1.91-2.21-2.19-3.2c-0.1-0.39-0.16-0.87-0.16-1.43c0-1.12,0.47-2.02,1.4-2.71s1.99-1.03,3.17-1.03
			c1.18,0,2.21,0.34,3.08,1.03c0.87,0.69,1.31,1.6,1.31,2.72c0,1.33-0.98,2.6-2.93,3.79c-0.23,0.13-0.35,0.21-0.37,0.23
			c-0.02,0.02-0.03,0.06-0.03,0.13s0.06,0.16,0.18,0.26c0.12,0.11,0.25,0.23,0.4,0.37c0.15,0.13,0.37,0.34,0.67,0.6
			c0.29,0.27,0.59,0.52,0.88,0.76c0.29,0.24,0.88,0.92,1.77,2.05c0.89,1.13,1.36,1.69,1.41,1.69c0.11,0,0.19-0.04,0.23-0.12
			l3.55-5.37c0.26-0.39,0.39-0.73,0.39-1.01s-0.09-0.47-0.26-0.58c-0.18-0.11-0.37-0.19-0.58-0.23c-0.21-0.05-0.41-0.09-0.58-0.14
			c-0.18-0.05-0.26-0.16-0.26-0.34c0-0.18,0.05-0.27,0.16-0.27h5.7c0.04,0.07,0.06,0.18,0.06,0.33s-0.03,0.25-0.08,0.29
			c-0.06,0.04-0.4,0.09-1.02,0.16c-1.01,0.09-1.72,0.45-2.11,1.07l-4.58,7.25l1.94,3.34c0.58,1.01,1.29,1.52,2.13,1.52
			c0.44,0,0.88-0.1,1.32-0.29S140.19,225.63,140.35,225.58z M125.87,225.64c1.03,0,1.99-0.25,2.89-0.74c0.9-0.49,1.8-1.11,2.7-1.87
			c0.18-0.17,0.26-0.29,0.26-0.39c-0.01-0.09-0.01-0.15-0.01-0.17c-0.01-0.02-0.02-0.05-0.02-0.08c-1.4-2.4-3.11-4.42-5.15-6.05
			c-0.11-0.09-0.25-0.21-0.4-0.34c-0.15-0.13-0.31-0.2-0.45-0.2c-0.19,0-0.49,0.12-0.9,0.37c-0.88,0.52-1.6,1.25-2.15,2.19
			c-0.55,0.94-0.83,1.81-0.83,2.59c0,1.37,0.42,2.49,1.26,3.37C123.91,225.2,124.84,225.64,125.87,225.64z M129.44,210.54
			c0-1.92-0.81-2.89-2.44-2.89c-1.05,0-1.72,0.47-2.03,1.41c-0.09,0.29-0.14,0.71-0.14,1.26s0.21,1.18,0.64,1.87s1,1.26,1.72,1.71
			c0.64-0.11,1.18-0.53,1.61-1.26C129.22,211.92,129.44,211.22,129.44,210.54z"/>
	</g>
</g>
</svg>
